<svg width="271" height="509" viewBox="0 0 271 509" fill="none" xmlns="http://www.w3.org/2000/svg">
<g opacity="0.4">
<path d="M131.663 254.498C131.663 183.361 73.0616 125.758 0.87393 125.758V4.02638C141.403 4.02638 255.331 116.171 255.331 254.498H131.663Z" fill="black" stroke="white" stroke-width="1.74652" stroke-miterlimit="10"/>
<path d="M131.806 254.498C131.806 183.361 190.407 125.758 262.595 125.758V4.02638C122.066 4.02638 8.13705 116.171 8.13705 254.498H131.806Z" fill="black" stroke="white" stroke-width="1.74652" stroke-miterlimit="10"/>
<path d="M131.806 254.499C131.806 325.636 190.407 383.239 262.595 383.239V504.97C122.066 504.97 8.13705 392.826 8.13705 254.499H131.806Z" fill="black" stroke="white" stroke-width="1.74652" stroke-miterlimit="10"/>
<path d="M131.663 254.499C131.663 325.636 73.0616 383.239 0.87393 383.239V504.97C141.403 504.97 255.331 392.826 255.331 254.499H131.663Z" fill="black" stroke="white" stroke-width="1.74652" stroke-miterlimit="10"/>
</g>
</svg>
