<svg width="24" height="21" viewBox="0 0 24 21" fill="none" xmlns="http://www.w3.org/2000/svg">
<path d="M0 14.3333C0 12.3778 0.422222 10.5111 1.26667 8.73333C2.11111 6.95555 3.22222 5.33333 4.6 3.86666C6.02222 2.35555 7.55555 1.06667 9.2 0L10.4667 1.8C8.86667 3.08889 7.55556 4.31111 6.53333 5.46666C5.55556 6.57777 4.68889 8.02222 3.93333 9.79999L5.86667 11.5333C6.88889 12.3778 7.57778 13.2 7.93333 14C8.28889 14.8 8.46667 15.6222 8.46667 16.4667C8.46667 17.8 8.11111 18.8 7.4 19.4667C6.68889 20.0889 5.73333 20.4 4.53333 20.4C3.86667 20.4 3.22222 20.3111 2.6 20.1333C2.02222 19.9111 1.46667 19.5556 0.933334 19.0667C0.311112 17.5556 0 15.9778 0 14.3333ZM13.5333 14.3333C13.5333 12.3778 13.9556 10.5111 14.8 8.73333C15.6444 6.95555 16.7556 5.33333 18.1333 3.86666C19.5556 2.35555 21.0889 1.06667 22.7333 0L24 1.8C22.4 3.08889 21.0889 4.31111 20.0667 5.46666C19.0889 6.57777 18.2222 8.02222 17.4667 9.79999L19.4 11.5333C20.4222 12.3778 21.1111 13.2 21.4667 14C21.8222 14.8 22 15.6222 22 16.4667C22 17.8 21.6444 18.8 20.9333 19.4667C20.2222 20.0889 19.2667 20.4 18.0667 20.4C17.4 20.4 16.7556 20.3111 16.1333 20.1333C15.5556 19.9111 15 19.5556 14.4667 19.0667C13.8444 17.5556 13.5333 15.9778 13.5333 14.3333Z" fill="#010101"/>
</svg>
