<svg width="38" height="38" viewBox="0 0 38 38" fill="none" xmlns="http://www.w3.org/2000/svg">
<rect x="0.446165" y="0.446165" width="37.1077" height="37.1077" rx="10.2618" stroke="white" stroke-width="0.89233"/>
<path d="M15.519 24.4225H12.8568V15.9834H15.519V24.4225ZM14.1861 14.8139C13.8841 14.8122 13.5894 14.7213 13.3392 14.5526C13.0889 14.3839 12.8943 14.145 12.78 13.866C12.6657 13.5871 12.6367 13.2806 12.6968 12.9853C12.7568 12.6899 12.9032 12.4189 13.1174 12.2065C13.3316 11.9941 13.6041 11.8498 13.9004 11.7917C14.1967 11.7337 14.5037 11.7646 14.7824 11.8805C15.0612 11.9964 15.2993 12.1921 15.4667 12.4429C15.6342 12.6937 15.7234 12.9884 15.7232 13.2898C15.726 13.4915 15.6881 13.6918 15.6118 13.8786C15.5354 14.0655 15.4221 14.2351 15.2787 14.3773C15.1353 14.5195 14.9646 14.6315 14.7769 14.7065C14.5892 14.7815 14.3882 14.818 14.1861 14.8139ZM25.3317 24.4299H22.6707V19.8194C22.6707 18.4598 22.0915 18.0401 21.3439 18.0401C20.5545 18.0401 19.7798 18.634 19.7798 19.8538V24.4299H17.1176V15.9895H19.6777V17.159H19.7122C19.9692 16.6399 20.8693 15.7527 22.2428 15.7527C23.7282 15.7527 25.3329 16.6325 25.3329 19.2096L25.3317 24.4299Z" fill="white"/>
</svg>
